<?xml version="1.0" encoding="UTF-8" standalone="no"?>
<!DOCTYPE svg PUBLIC "-//W3C//DTD SVG 1.1//EN"
 "http://www.w3.org/Graphics/SVG/1.1/DTD/svg11.dtd">
<!-- Generated by graphviz version 2.40.1 (20161225.0304)
 -->
<!-- Title: G Pages: 1 -->
<svg width="301pt" height="489pt"
 viewBox="0.00 0.00 301.42 489.00" xmlns="http://www.w3.org/2000/svg" xmlns:xlink="http://www.w3.org/1999/xlink">
<g id="graph0" class="graph" transform="scale(1 1) rotate(0) translate(4 485)">
<title>G</title>
<polygon fill="#ffffff" stroke="transparent" points="-4,4 -4,-485 297.4204,-485 297.4204,4 -4,4"/>
<g id="clust1" class="cluster">
<title>cluster_Global</title>
<path fill="none" stroke="#c0c0c0" d="M20,-8C20,-8 273.4204,-8 273.4204,-8 279.4204,-8 285.4204,-14 285.4204,-20 285.4204,-20 285.4204,-461 285.4204,-461 285.4204,-467 279.4204,-473 273.4204,-473 273.4204,-473 20,-473 20,-473 14,-473 8,-467 8,-461 8,-461 8,-20 8,-20 8,-14 14,-8 20,-8"/>
<text text-anchor="middle" x="146.7102" y="-460.2" font-family="Times,serif" font-size="11.00" fill="#c0c0c0">Global</text>
</g>
<g id="clust2" class="cluster">
<title>cluster_\prodigyview</title>
<path fill="none" stroke="#c0c0c0" d="M28,-16C28,-16 265.4204,-16 265.4204,-16 271.4204,-16 277.4204,-22 277.4204,-28 277.4204,-28 277.4204,-434 277.4204,-434 277.4204,-440 271.4204,-446 265.4204,-446 265.4204,-446 28,-446 28,-446 22,-446 16,-440 16,-434 16,-434 16,-28 16,-28 16,-22 22,-16 28,-16"/>
<text text-anchor="middle" x="146.7102" y="-433.2" font-family="Times,serif" font-size="11.00" fill="#c0c0c0">prodigyview</text>
</g>
<g id="clust3" class="cluster">
<title>cluster_\prodigyview\helium</title>
<path fill="none" stroke="#c0c0c0" d="M36,-24C36,-24 257.4204,-24 257.4204,-24 263.4204,-24 269.4204,-30 269.4204,-36 269.4204,-36 269.4204,-407 269.4204,-407 269.4204,-413 263.4204,-419 257.4204,-419 257.4204,-419 36,-419 36,-419 30,-419 24,-413 24,-407 24,-407 24,-36 24,-36 24,-30 30,-24 36,-24"/>
<text text-anchor="middle" x="146.7102" y="-406.2" font-family="Times,serif" font-size="11.00" fill="#c0c0c0">helium</text>
</g>
<!-- \\prodigyview\\helium\\He2Model -->
<g id="node1" class="node">
<title>\\prodigyview\\helium\\He2Model</title>
<polygon fill="none" stroke="#000000" points="251.5242,-392 169.5027,-392 169.5027,-356 251.5242,-356 251.5242,-392"/>
<text text-anchor="start" x="177.5081" y="-376.2" font-family="Courier,monospace" font-size="11.00" fill="#000000">«abstract»</text>
<text text-anchor="start" x="184.1091" y="-365.2" font-family="Courier,monospace" font-size="11.00" fill="#000000">He2Model</text>
</g>
<!-- \\prodigyview\\helium\\He2Registry -->
<g id="node2" class="node">
<title>\\prodigyview\\helium\\He2Registry</title>
<polygon fill="none" stroke="#000000" points="254.6261,-338 166.4008,-338 166.4008,-302 254.6261,-302 254.6261,-338"/>
<text text-anchor="middle" x="210.5134" y="-316.7" font-family="Courier,monospace" font-size="11.00" fill="#000000">He2Registry</text>
</g>
<!-- \\prodigyview\\helium\\He2Controller -->
<g id="node3" class="node">
<title>\\prodigyview\\helium\\He2Controller</title>
<polygon fill="none" stroke="#000000" points="261.3276,-284 159.6993,-284 159.6993,-248 261.3276,-248 261.3276,-284"/>
<text text-anchor="start" x="177.5081" y="-268.2" font-family="Courier,monospace" font-size="11.00" fill="#000000">«abstract»</text>
<text text-anchor="start" x="167.6064" y="-257.2" font-family="Courier,monospace" font-size="11.00" fill="#000000">He2Controller</text>
</g>
<!-- \\prodigyview\\helium\\He2App -->
<g id="node4" class="node">
<title>\\prodigyview\\helium\\He2App</title>
<polygon fill="none" stroke="#000000" points="87.4111,-176 32.1954,-176 32.1954,-140 87.4111,-140 87.4111,-176"/>
<text text-anchor="middle" x="59.8032" y="-154.7" font-family="Courier,monospace" font-size="11.00" fill="#000000">He2App</text>
</g>
<!-- \\prodigyview\\helium\\He2Template -->
<g id="node5" class="node">
<title>\\prodigyview\\helium\\He2Template</title>
<polygon fill="none" stroke="#000000" points="254.6261,-230 166.4008,-230 166.4008,-194 254.6261,-194 254.6261,-230"/>
<text text-anchor="middle" x="210.5134" y="-208.7" font-family="Courier,monospace" font-size="11.00" fill="#000000">He2Template</text>
</g>
<!-- \\prodigyview\\helium\\HeliumConsole -->
<g id="node6" class="node">
<title>\\prodigyview\\helium\\HeliumConsole</title>
<polygon fill="none" stroke="#000000" points="261.3276,-176 159.6993,-176 159.6993,-140 261.3276,-140 261.3276,-176"/>
<text text-anchor="middle" x="210.5134" y="-154.7" font-family="Courier,monospace" font-size="11.00" fill="#000000">HeliumConsole</text>
</g>
<!-- \\prodigyview\\helium\\HeliumConsole&#45;&gt;\\prodigyview\\helium\\He2App -->
<g id="edge1" class="edge">
<title>\\prodigyview\\helium\\HeliumConsole&#45;&gt;\\prodigyview\\helium\\He2App</title>
<path fill="none" stroke="#000000" d="M159.4898,-158C139.2652,-158 116.4212,-158 97.7085,-158"/>
<polygon fill="none" stroke="#000000" points="97.5007,-154.5001 87.5006,-158 97.5006,-161.5001 97.5007,-154.5001"/>
</g>
<!-- \\prodigyview\\helium\\He2Router -->
<g id="node7" class="node">
<title>\\prodigyview\\helium\\He2Router</title>
<polygon fill="none" stroke="#000000" points="248.4242,-122 172.6026,-122 172.6026,-86 248.4242,-86 248.4242,-122"/>
<text text-anchor="middle" x="210.5134" y="-100.7" font-family="Courier,monospace" font-size="11.00" fill="#000000">He2Router</text>
</g>
<!-- \\prodigyview\\helium\\Redirect -->
<g id="node8" class="node">
<title>\\prodigyview\\helium\\Redirect</title>
<polygon fill="none" stroke="#000000" points="244.8223,-68 176.2046,-68 176.2046,-32 244.8223,-32 244.8223,-68"/>
<text text-anchor="middle" x="210.5134" y="-46.7" font-family="Courier,monospace" font-size="11.00" fill="#000000">Redirect</text>
</g>
</g>
</svg>
